<svg width="20" height="16" viewBox="0 0 20 16" fill="none" xmlns="http://www.w3.org/2000/svg">
<path d="M12.1426 0.5C12.3856 0.5 12.621 0.598291 12.7959 0.776367L19.2246 7.3291C19.3998 7.50771 19.5 7.75218 19.5 8.00879C19.5 8.26539 19.3998 8.50987 19.2246 8.68848L12.7949 15.2412C12.6199 15.41 12.3896 15.5021 12.1523 15.5C11.9122 15.4978 11.6806 15.3996 11.5078 15.2236C11.3346 15.047 11.2346 14.8055 11.2324 14.5518C11.2304 14.2982 11.3259 14.0556 11.4961 13.876L11.4951 13.875L15.3623 9.80957L16.166 8.96484H1.42871C1.1856 8.96484 0.950295 8.86671 0.775391 8.68848C0.600158 8.50986 0.5 8.26544 0.5 8.00879C0.500001 7.75213 0.600159 7.50772 0.775391 7.3291C0.950295 7.15087 1.1856 7.05273 1.42871 7.05273H16.166L15.3623 6.20801L11.4951 2.14062L11.4902 2.13574L11.4277 2.06543C11.2913 1.89557 11.2149 1.68051 11.2148 1.45605C11.2148 1.19945 11.3151 0.954979 11.4902 0.776367C11.665 0.598419 11.8998 0.500125 12.1426 0.5Z" fill="#1A2BBD" stroke="black"/>
</svg>
