<svg width="34" height="28" viewBox="0 0 34 28" fill="none" xmlns="http://www.w3.org/2000/svg">
<path d="M17 23.3333C13.2394 23.3333 9.81364 22.2771 6.72273 20.1647C3.63182 18.0522 1.39091 15.2196 0 11.6667C1.39091 8.11482 3.63182 5.28267 6.72273 3.17022C9.81364 1.05778 13.2394 0.0010378 17 7.62527e-07C20.7606 -0.00103627 24.1864 1.0557 27.2773 3.17022C30.3682 5.28474 32.6091 8.11689 34 11.6667C33.8455 12.0556 33.6847 12.4315 33.5178 12.7944C33.3509 13.1574 33.1639 13.5074 32.9568 13.8444L30.5227 11.55C29.2091 8.95741 27.3484 6.90252 24.9405 5.38533C22.5327 3.86815 19.8859 3.11007 17 3.11111C14.0894 3.11111 11.4173 3.88267 8.98373 5.42578C6.55015 6.96889 4.68891 9.04919 3.4 11.6667C4.68788 14.2852 6.54912 16.366 8.98373 17.9091C11.4183 19.4522 14.0904 20.2233 17 20.2222C17.2833 20.2222 17.5605 20.216 17.8315 20.2036C18.1024 20.1911 18.3791 20.1584 18.6614 20.1056C18.5583 20.6241 18.5068 21.1556 18.5068 21.7C18.5068 22.2444 18.5583 22.7759 18.6614 23.2944C18.378 23.3204 18.1014 23.3333 17.8315 23.3333H17ZM17 18.6667C15.0682 18.6667 13.4264 17.9864 12.0746 16.6258C10.7229 15.2652 10.0465 13.6121 10.0455 11.6667C10.0444 9.72119 10.7208 8.06867 12.0746 6.70911C13.4285 5.34956 15.0702 4.66874 17 4.66667C18.9298 4.66459 20.5721 5.34541 21.9269 6.70911C23.2818 8.07281 23.9576 9.72533 23.9545 11.6667C23.9545 11.8481 23.9484 12.0234 23.936 12.1924C23.9236 12.3615 23.9041 12.5362 23.8773 12.7167L21.4818 14.9333C20.9924 15.4259 20.5545 15.9512 20.1682 16.5091C19.7818 17.067 19.4598 17.6566 19.2023 18.2778C18.8417 18.4074 18.4811 18.5049 18.1205 18.5702C17.7598 18.6356 17.3864 18.6677 17 18.6667ZM19.9565 14.6409C20.7673 13.8247 21.1727 12.8333 21.1727 11.6667C21.1727 10.5 20.7673 9.50859 19.9565 8.69245C19.1456 7.8763 18.1601 7.4677 17 7.46667C15.8399 7.46563 14.8549 7.87422 14.0451 8.69245C13.2353 9.51067 12.8293 10.5021 12.8273 11.6667C12.8252 12.8313 13.2312 13.8232 14.0451 14.6424C14.859 15.4617 15.844 15.8698 17 15.8667C18.156 15.8636 19.1415 15.4555 19.9565 14.6424M27.8182 28C26.0924 28 24.6304 27.3907 23.4322 26.1722C22.2339 24.9537 21.6225 23.4759 21.5977 21.7389C21.5977 20.8833 21.778 20.0667 22.1386 19.2889C22.4992 18.5111 22.9886 17.8241 23.6068 17.2278L27.8182 13.2222L31.9909 17.2278C32.6091 17.8241 33.0923 18.5049 33.4405 19.2702C33.7888 20.0356 33.9753 20.8455 34 21.7C34 23.463 33.3947 24.9537 32.1841 26.1722C30.9735 27.3907 29.5182 28 27.8182 28ZM27.8182 24.8889C28.6682 24.8889 29.3961 24.5778 30.0019 23.9556C30.6077 23.3333 30.8972 22.5815 30.8705 21.7C30.8705 21.2593 30.7741 20.8444 30.5815 20.4556C30.3888 20.0667 30.1374 19.7296 29.8273 19.4444L27.8182 17.5L25.7705 19.4444C25.4614 19.7296 25.2038 20.0734 24.9977 20.4758C24.7917 20.8782 24.7015 21.2992 24.7273 21.7389C24.7273 22.6204 25.0235 23.366 25.6159 23.9758C26.2083 24.5856 26.9424 24.8899 27.8182 24.8889Z" fill="#11B463"/>
</svg>
