<svg width="37" height="37" viewBox="0 0 37 37" fill="none" xmlns="http://www.w3.org/2000/svg">
<path d="M7.44111 16.0128C10.4011 21.83 15.17 26.5989 20.9872 29.5589L25.5094 25.0367C26.085 24.4611 26.8867 24.2967 27.6061 24.5228C29.9083 25.2833 32.375 25.6944 34.9444 25.6944C35.4896 25.6944 36.0125 25.911 36.3979 26.2965C36.7834 26.682 37 27.2048 37 27.75V34.9444C37 35.4896 36.7834 36.0125 36.3979 36.3979C36.0125 36.7834 35.4896 37 34.9444 37C25.6766 37 16.7883 33.3184 10.235 26.765C3.68164 20.2117 0 11.3234 0 2.05556C0 1.51039 0.216567 0.98755 0.602058 0.602058C0.98755 0.216567 1.51039 0 2.05556 0H9.25C9.79517 0 10.318 0.216567 10.7035 0.602058C11.089 0.98755 11.3056 1.51039 11.3056 2.05556C11.3056 4.625 11.7167 7.09167 12.4772 9.39389C12.7033 10.1133 12.5389 10.915 11.9633 11.4906L7.44111 16.0128Z" fill="#F23836"/>
</svg>
