<svg width="39" height="33" viewBox="0 0 39 33" fill="none" xmlns="http://www.w3.org/2000/svg">
<path fill-rule="evenodd" clip-rule="evenodd" d="M13.999 0.289904C5.68466 5.62965 1.06556 11.845 0.141741 18.936C-1.29699 29.9743 8.57426 35.377 13.5761 30.5231C18.578 25.6692 15.5802 19.5068 11.9585 17.8219C8.33686 16.1369 6.12191 16.7243 6.50837 14.4729C6.89482 12.2215 12.0469 5.98188 16.5739 3.07572C16.7341 2.93915 16.8363 2.7467 16.8597 2.5375C16.8831 2.32829 16.8259 2.11803 16.6998 1.94947L15.5802 0.493071C15.0944 -0.138513 14.6284 -0.114221 13.999 0.288799M35.8902 0.289904C27.5759 5.62965 22.9568 11.845 22.0329 18.936C20.5931 29.9743 30.4644 35.377 35.4662 30.5231C40.4681 25.6692 37.4703 19.5068 33.8475 17.8219C30.2248 16.1369 28.0109 16.7243 28.3974 14.4729C28.7838 12.2215 33.937 5.98188 38.464 3.07572C38.6241 2.939 38.726 2.74647 38.7492 2.53727C38.7724 2.32807 38.715 2.1179 38.5888 1.94947L37.4703 0.493071C36.9845 -0.138513 36.5185 -0.114221 35.8902 0.288799" fill="#F24822"/>
</svg>
