<svg width="28" height="38" viewBox="0 0 28 38" fill="none" xmlns="http://www.w3.org/2000/svg">
<path d="M25.6667 9.5H18.6667V2.375C18.6667 1.06355 17.6218 0 16.3333 0H11.6667C10.3782 0 9.33333 1.06355 9.33333 2.375V9.5H2.33333C1.0449 9.5 0 10.5636 0 11.875V16.625C0 17.9364 1.0449 19 2.33333 19H9.33333V35.625C9.33333 36.9364 10.3782 38 11.6667 38H16.3333C17.6218 38 18.6667 36.9364 18.6667 35.625V19H25.6667C26.9551 19 28 17.9364 28 16.625V11.875C28 10.5636 26.9551 9.5 25.6667 9.5Z" fill="#F24822"/>
</svg>
