<svg width="41" height="48" viewBox="0 0 41 48" fill="none" xmlns="http://www.w3.org/2000/svg">
<path d="M40.8333 7.14583L20.4167 0L0 7.14583V23.6017C0 32.0276 5.17358 37.9178 9.996 41.5745C12.9076 43.7599 16.101 45.5421 19.4897 46.8726C19.7211 46.9597 19.9539 47.0427 20.188 47.1217L20.4167 47.2033L20.6494 47.1217C21.0958 46.9666 21.5383 46.8005 21.9765 46.6235C25.1324 45.3233 28.1099 43.6266 30.8373 41.5745C35.6618 37.9178 40.8333 32.0276 40.8333 23.6017V7.14583ZM18.377 30.574L9.71833 21.9112L12.6053 19.0222L18.3791 24.7981L29.9288 13.2484L32.8177 16.1353L18.377 30.574Z" fill="#14AE5C" fill-opacity="0.9"/>
</svg>
