<svg width="32" height="41" viewBox="0 0 32 41" fill="none" xmlns="http://www.w3.org/2000/svg">
<path d="M16 30.75C14.8507 30.7502 13.7435 30.3191 12.8989 29.5424C12.0543 28.7657 11.5342 27.7005 11.4423 26.5589C8.39357 25.4835 5.82411 23.3694 4.18748 20.5897C2.55085 17.81 1.95228 14.5434 2.49743 11.3667C3.04258 8.18999 4.6964 5.30733 7.16695 3.22757C9.6375 1.14781 12.7659 0.00469325 16 1.43714e-07C19.4398 -0.000496674 22.7541 1.28714 25.2859 3.6076C27.8176 5.92806 29.3819 9.11189 29.6686 12.5278C29.6781 12.6759 29.6566 12.8245 29.6055 12.9639C29.5543 13.1034 29.4747 13.2307 29.3715 13.3378C29.2683 13.4449 29.1439 13.5294 29.0062 13.5861C28.8684 13.6427 28.7204 13.6701 28.5714 13.6667C28.2653 13.659 27.9729 13.5382 27.7511 13.3277C27.5293 13.1173 27.394 12.8321 27.3714 12.5278C27.1679 10.5138 26.4294 8.59037 25.232 6.95536C24.0346 5.32035 22.4215 4.0329 20.5589 3.22553C18.6963 2.41817 16.6515 2.12007 14.6348 2.36193C12.6182 2.60379 10.7027 3.37686 9.0855 4.60156C7.46831 5.82627 6.20787 7.45834 5.43395 9.32978C4.66002 11.2012 4.40057 13.2444 4.6823 15.2489C4.96404 17.2535 5.77678 19.147 7.03686 20.7345C8.29694 22.3221 9.95883 23.5463 11.8514 24.2811C12.1958 23.5396 12.734 22.904 13.4095 22.441C14.0851 21.9779 14.8732 21.7045 15.6913 21.6493C16.5093 21.5941 17.3272 21.7592 18.0593 22.1272C18.7913 22.4953 19.4106 23.0528 19.8521 23.7412C20.2936 24.4297 20.5412 25.2239 20.5689 26.0405C20.5966 26.8572 20.4034 27.6662 20.0096 28.3828C19.6157 29.0994 19.0356 29.6973 18.3302 30.1138C17.6248 30.5303 16.8199 30.75 16 30.75ZM4.592 25.0556H4.8C5.69143 25.9234 6.68114 26.6887 7.75314 27.3333H4.592C3.30971 27.3333 2.28571 28.3515 2.28571 29.6111C2.28571 32.5927 3.70743 34.8136 6.10971 36.3374C8.55543 37.8931 12.0343 38.7222 16 38.7222C19.9657 38.7222 23.4446 37.8931 25.8903 36.3374C28.2903 34.8113 29.7143 32.595 29.7143 29.6111C29.7143 29.007 29.4735 28.4276 29.0448 28.0005C28.6162 27.5733 28.0348 27.3333 27.4286 27.3333H22.7634C22.8913 26.5794 22.8913 25.8095 22.7634 25.0556H27.4286C28.641 25.0556 29.8038 25.5355 30.6611 26.3898C31.5184 27.2442 32 28.4029 32 29.6111C32 33.4628 30.096 36.367 27.12 38.2598C24.1897 40.1208 20.24 41 16 41C11.76 41 7.81029 40.1208 4.88 38.2598C1.904 36.3693 0 33.4606 0 29.6111C0 27.0759 2.064 25.0556 4.592 25.0556ZM25.1429 13.6667C25.1434 15.2079 24.7515 16.7241 24.004 18.0733C23.2564 19.4226 22.1777 20.5608 20.8686 21.3815C20.2584 20.7683 19.5371 20.276 18.7429 19.9306C20.1867 19.3026 21.3695 18.1984 22.0925 16.8035C22.8154 15.4087 23.0344 13.8084 22.7125 12.2716C22.3906 10.7348 21.5476 9.35534 20.3251 8.36513C19.1027 7.37492 17.5754 6.83437 16 6.83437C14.4246 6.83437 12.8973 7.37492 11.6749 8.36513C10.4524 9.35534 9.60936 10.7348 9.2875 12.2716C8.96564 13.8084 9.18458 15.4087 9.90752 16.8035C10.6305 18.1984 11.8133 19.3026 13.2571 19.9306C12.4571 20.2791 11.7371 20.7733 11.1314 21.3815C9.39525 20.2935 8.0766 18.6553 7.38743 16.7303C7.03585 15.7469 6.85648 14.7106 6.85714 13.6667C6.85714 11.2502 7.82041 8.9328 9.53502 7.22414C11.2496 5.51547 13.5752 4.55556 16 4.55556C18.4248 4.55556 20.7504 5.51547 22.465 7.22414C24.1796 8.9328 25.1429 11.2502 25.1429 13.6667Z" fill="#FEB02A"/>
</svg>
